<svg width="192" height="35" viewBox="0 0 192 35" fill="none" xmlns="http://www.w3.org/2000/svg">
<path fill-rule="evenodd" clip-rule="evenodd" d="M134.914 16.3198H131.494L132.178 12.8842H135.597C135.839 11.6717 136.093 10.5805 136.362 9.61048C136.63 8.64042 137.019 7.80541 137.528 7.1045C138.038 6.40397 138.722 5.86529 139.58 5.48755C140.438 5.11075 141.565 4.92188 142.959 4.92188C143.576 4.92188 144.166 4.95596 144.73 5.02283C145.293 5.09044 145.842 5.15098 146.379 5.20462L145.615 8.72107C145.159 8.61379 144.569 8.5594 143.845 8.5594C143.066 8.5594 142.47 8.66743 142.054 8.88293C141.638 9.09881 141.316 9.40205 141.089 9.79227C140.861 10.1832 140.693 10.6411 140.586 11.1665C140.478 11.692 140.345 12.2647 140.184 12.8842H144.207L143.523 16.3198H139.5L135.879 33.7808H131.293L134.914 16.3198Z" fill="#D700A4"/>
<path fill-rule="evenodd" clip-rule="evenodd" d="M148.43 4.92188H153.017L147.063 33.7808H142.477L148.43 4.92188Z" fill="#D700A4"/>
<path fill-rule="evenodd" clip-rule="evenodd" d="M166.934 21.4935C166.96 21.3588 166.974 21.2446 166.974 21.1498C166.974 21.0557 166.974 20.9546 166.974 20.8466V20.1999C166.974 18.9609 166.585 17.9435 165.808 17.1483C165.029 16.3539 163.957 15.9559 162.589 15.9559C160.873 15.9559 159.505 16.475 158.486 17.5121C157.466 18.5498 156.729 19.8765 156.273 21.4935H166.934ZM170.273 27.3138C169.549 29.7659 168.328 31.5515 166.612 32.6692C164.896 33.7872 162.777 34.3467 160.256 34.3467C158.942 34.3467 157.728 34.1375 156.615 33.7201C155.502 33.3027 154.543 32.6964 153.739 31.9013C152.934 31.1068 152.304 30.1498 151.848 29.0315C151.392 27.9136 151.164 26.6405 151.164 25.212C151.164 23.5953 151.419 22.0187 151.928 20.483C152.438 18.9471 153.182 17.5728 154.161 16.3601C155.14 15.1475 156.347 14.1711 157.782 13.4298C159.216 12.689 160.859 12.3184 162.71 12.3184C164.561 12.3184 166.062 12.6283 167.216 13.2478C168.369 13.8681 169.267 14.6494 169.911 15.5921C170.555 16.5357 170.99 17.5728 171.219 18.7044C171.446 19.8361 171.561 20.9142 171.561 21.9379C171.561 22.4501 171.533 22.9219 171.48 23.3526C171.426 23.7841 171.373 24.1749 171.319 24.5247H155.831C155.804 24.6599 155.784 24.7812 155.77 24.8885C155.757 24.9965 155.75 25.1045 155.75 25.212V25.8585C155.75 27.3138 156.133 28.4859 156.897 29.375C157.661 30.2644 158.928 30.7088 160.699 30.7088C161.932 30.7088 162.992 30.4261 163.877 29.8602C164.762 29.2943 165.365 28.4455 165.687 27.3138H170.273Z" fill="#D700A4"/>
<path fill-rule="evenodd" clip-rule="evenodd" d="M173.534 12.8828H178.442L181.299 19.5521L186.689 12.8828H192L183.149 22.9876L188.459 33.7794H183.47L180.092 26.0998L173.735 33.7794H168.465L178.12 22.6644L173.534 12.8828Z" fill="#D700A4"/>
<path fill-rule="evenodd" clip-rule="evenodd" d="M116.955 26.9247C116.503 27.8966 115.904 28.6178 115.171 29.0866C114.419 29.5562 113.602 29.7894 112.701 29.7894H112.686C111.784 29.7894 110.966 29.5387 110.215 29.0529C109.465 28.5511 108.865 27.8124 108.431 26.8405C107.998 25.851 107.781 24.6614 107.781 23.2532C107.781 21.9295 107.981 20.757 108.398 19.7677C108.799 18.7626 109.381 17.9902 110.116 17.4549C110.866 16.9008 111.702 16.6504 112.652 16.6504H112.701C113.585 16.6504 114.402 16.9181 115.153 17.4374C115.904 17.9569 116.503 18.7129 116.955 19.7008C117.405 20.6899 117.622 21.8797 117.622 23.2532C117.622 24.7283 117.405 25.9527 116.955 26.9247ZM122.142 5.84216C121.708 5.33888 121.126 5.08594 120.341 5.08594C119.557 5.08594 118.957 5.35471 118.539 5.90885C118.123 6.44435 117.906 7.24863 117.906 8.30474V15.9475C116.939 14.8742 115.937 14.1033 114.92 13.584C114.285 13.2666 113.535 13.0323 112.701 12.9132C112.216 12.8464 111.716 12.8117 111.168 12.8117C108.615 12.8117 106.547 13.7177 104.962 15.5276C103.394 17.3385 102.609 19.8521 102.609 23.0849C102.609 24.6118 102.81 26.036 103.209 27.3438C103.611 28.65 104.176 29.7894 104.945 30.7622C105.712 31.7351 106.63 32.4703 107.681 33.0082C108.731 33.526 109.866 33.7938 111.101 33.7938C111.667 33.7938 112.2 33.7456 112.701 33.6452C113.035 33.5932 113.351 33.5102 113.67 33.4085C114.453 33.1421 115.187 32.7567 115.854 32.2708C116.538 31.7673 117.223 31.1141 117.906 30.3258V30.8293C117.906 31.7848 118.139 32.5049 118.589 33.0242C119.057 33.526 119.64 33.7938 120.341 33.7938C121.059 33.7938 121.642 33.5435 122.093 33.0579C122.542 32.5546 122.777 31.8183 122.777 30.8293V8.03727C122.777 7.08044 122.558 6.34395 122.142 5.84216Z" fill="#003A9B"/>
<path fill-rule="evenodd" clip-rule="evenodd" d="M89.0138 17.6712C89.8319 16.7825 90.8831 16.3474 92.1672 16.3474H92.1845C93.5182 16.3474 94.6025 16.7825 95.4205 17.6536C96.2386 18.5265 96.7219 19.8502 96.8382 21.6264H87.5136C87.6791 19.8836 88.1812 18.5589 89.0138 17.6712ZM101.024 27.1409C100.708 26.8558 100.274 26.7047 99.7397 26.7047C99.256 26.7047 98.8895 26.8226 98.6233 27.0392C97.9716 27.6431 97.4548 28.1276 97.0538 28.4807C96.6556 28.8169 96.2039 29.1514 95.7203 29.4688C95.254 29.7713 94.7529 30.007 94.2534 30.1407C93.7353 30.2906 93.1863 30.3575 92.5682 30.3575C92.435 30.3575 92.3004 30.3575 92.1845 30.3404C91.4159 30.2906 90.7004 30.0725 90.0503 29.6696C89.2815 29.217 88.6819 28.5493 88.2132 27.6764C87.7629 26.7716 87.531 25.7328 87.5136 24.5603H97.5721C98.9216 24.5603 99.9727 24.3582 100.708 23.989C101.459 23.5872 101.826 22.7496 101.826 21.459C101.826 20.051 101.459 18.6766 100.742 17.3204C100.024 15.978 98.9564 14.8724 97.5056 14.0185C96.0695 13.1643 94.3523 12.7441 92.3337 12.7441H92.1845C90.7004 12.7602 89.331 13.0131 88.1144 13.4817C86.8465 13.9848 85.778 14.7051 84.8933 15.6262C84.0446 16.5644 83.3772 17.6872 82.9268 18.9949C82.4765 20.304 82.2422 21.727 82.2422 23.2514C82.2422 26.5039 83.1602 29.0511 84.9956 30.9439C86.7292 32.7387 89.1324 33.6769 92.1845 33.7762C92.3512 33.792 92.5338 33.792 92.7188 33.792C94.1537 33.792 95.4366 33.6089 96.5543 33.2245C97.6719 32.838 98.5897 32.3678 99.325 31.799C100.057 31.2128 100.608 30.6104 100.974 29.9894C101.341 29.3697 101.525 28.8169 101.525 28.363C101.525 27.8437 101.358 27.4261 101.024 27.1409Z" fill="#003A9B"/>
<path fill-rule="evenodd" clip-rule="evenodd" d="M68.4127 17.6712C69.2305 16.7825 70.2806 16.3474 71.5661 16.3474H71.5829C72.9168 16.3474 74.0012 16.7825 74.8191 17.6536C75.6521 18.5265 76.1194 19.8502 76.2527 21.6264H66.9111C67.0963 19.8836 67.5972 18.5589 68.4127 17.6712ZM79.1556 26.7047C78.6548 26.7047 78.2885 26.8226 78.0221 27.0392C77.3877 27.6431 76.8547 28.1276 76.4537 28.4807C76.0531 28.8169 75.62 29.1514 75.1352 29.4688C74.6526 29.7713 74.1678 30.007 73.651 30.1407C73.1502 30.2906 72.5824 30.3575 71.9658 30.3575C71.8336 30.3575 71.7003 30.3575 71.5829 30.3404C70.8147 30.2906 70.0979 30.0725 69.4465 29.6696C68.6975 29.217 68.0794 28.5493 67.6304 27.6764C67.1615 26.7716 66.9285 25.7328 66.9111 24.5603H76.9871C78.3215 24.5603 79.3727 24.3582 80.1229 23.989C80.8569 23.5872 81.2245 22.7496 81.2245 21.459C81.2245 20.051 80.8743 18.6766 80.1561 17.3204C79.4394 15.978 78.3551 14.8724 76.9214 14.0185C75.4841 13.1643 73.7522 12.7441 71.7511 12.7441H71.5829C70.0979 12.7602 68.747 13.0131 67.5131 13.4817C66.2437 13.9848 65.1766 14.7051 64.3093 15.6262C63.4421 16.5644 62.7747 17.6872 62.3256 18.9949C61.8738 20.304 61.6406 21.727 61.6406 23.2514C61.6406 26.5039 62.5759 29.0511 64.4105 30.9439C66.1451 32.7387 68.531 33.6769 71.5829 33.7762C71.767 33.792 71.9324 33.792 72.1163 33.792C73.5672 33.792 74.8365 33.6089 75.9518 33.2245C77.0694 32.838 77.9885 32.3678 78.7212 31.799C79.4715 31.2128 80.0058 30.6104 80.3732 29.9894C80.7397 29.3697 80.9247 28.8169 80.9247 28.363C80.9247 27.8437 80.7572 27.4261 80.44 27.1409C80.107 26.8558 79.6711 26.7047 79.1556 26.7047Z" fill="#003A9B"/>
<path fill-rule="evenodd" clip-rule="evenodd" d="M10.7148 30.3579V18.0238C11.0641 18.056 11.3984 18.0729 11.7486 18.0729C13.4167 18.0729 14.9861 17.6209 16.3198 16.8164V30.3579C16.3198 31.5144 16.0533 32.3682 15.535 32.9397C15.0192 33.5087 14.3348 33.7924 13.5007 33.7924C12.6826 33.7924 12.0326 33.5087 11.4983 32.9225C10.9814 32.3524 10.7148 31.4971 10.7148 30.3579Z" fill="#003A9B"/>
<path fill-rule="evenodd" clip-rule="evenodd" d="M54.0018 26.9247C53.5516 27.8966 52.9506 28.6178 52.202 29.0866C51.4667 29.5562 50.6327 29.7894 49.748 29.7894H49.732C48.8325 29.7894 48.0135 29.5387 47.2632 29.0529C46.4959 28.5511 45.9124 27.8124 45.4781 26.8405C45.045 25.851 44.8279 24.6614 44.8279 23.2532C44.8279 21.9295 45.0291 20.757 45.4286 19.7677C45.8457 18.7626 46.4121 17.9902 47.1633 17.4549C47.8976 16.9008 48.7474 16.6504 49.6827 16.6504H49.748C50.6327 16.6504 51.4493 16.9181 52.1846 17.4374C52.9506 17.9569 53.5516 18.7129 54.0018 19.7008C54.4348 20.6899 54.6692 21.8797 54.6692 23.2532C54.6692 24.7283 54.4348 25.9527 54.0018 26.9247ZM59.1734 5.84216C58.739 5.33888 58.1397 5.08594 57.3883 5.08594C56.6037 5.08594 56.0029 5.35471 55.5857 5.90885C55.154 6.44435 54.9517 7.24863 54.9517 8.30474V15.9475C53.9847 14.8742 52.9853 14.1033 51.9662 13.584C51.3173 13.2666 50.5819 13.0323 49.748 12.9132C49.2656 12.8464 48.7649 12.8117 48.2144 12.8117C45.662 12.8117 43.5769 13.7177 42.0089 15.5276C40.4408 17.3385 39.6562 19.8521 39.6562 23.0849C39.6562 24.6118 39.8576 26.036 40.2399 27.3438C40.6409 28.65 41.2243 29.7894 41.9927 30.7622C42.7591 31.7351 43.677 32.4703 44.7293 33.0082C45.7803 33.526 46.9128 33.7938 48.1479 33.7938C48.6979 33.7938 49.2322 33.7456 49.748 33.6452C50.0822 33.5932 50.3994 33.5102 50.7165 33.4085C51.4997 33.1421 52.2339 32.7567 52.9015 32.2708C53.585 31.7673 54.2533 31.1141 54.9517 30.3258V30.8293C54.9517 31.7848 55.1873 32.5049 55.6363 33.0242C56.0868 33.526 56.6875 33.7938 57.3883 33.7938C58.0705 33.7938 58.6727 33.5435 59.1239 33.0579C59.5731 32.5546 59.7902 31.8183 59.7902 30.8293V8.03727C59.7902 7.08044 59.5917 6.34395 59.1734 5.84216Z" fill="#003A9B"/>
<path fill-rule="evenodd" clip-rule="evenodd" d="M24.5452 15.6272V16.2653C25.4618 15.0581 26.4464 14.1866 27.5137 13.6166C28.5977 13.0636 29.8327 12.7773 31.233 12.7773C32.5852 12.7773 33.8031 13.0798 34.87 13.6673C35.9384 14.2524 36.722 15.0917 37.2548 16.1809C37.6065 16.817 37.8221 17.5049 37.9234 18.2425C38.0235 18.9624 38.0728 19.8997 38.0728 21.0399V30.645C38.0728 31.6836 37.8221 32.4694 37.3548 32.9898C36.8883 33.5251 36.2702 33.793 35.5201 33.793C34.7539 33.793 34.1358 33.5251 33.6523 32.9729C33.1675 32.4361 32.9356 31.65 32.9356 30.645V22.045C32.9356 20.3372 32.7011 19.0294 32.2337 18.1248C31.7673 17.2208 30.8162 16.7675 29.4158 16.7675C28.4979 16.7675 27.6639 17.0524 26.9127 17.5879C26.1627 18.1421 25.5951 18.8944 25.2447 19.8674C24.9944 20.6384 24.8771 22.0623 24.8771 24.1921V30.645C24.8771 31.6998 24.629 32.4694 24.1442 33.0073C23.6607 33.5251 23.0436 33.793 22.2764 33.793C21.5265 33.793 20.9244 33.5251 20.4405 32.9729C19.957 32.4361 19.7227 31.65 19.7227 30.645V15.7114C19.7227 14.7232 19.9397 13.9858 20.3741 13.5161C20.7911 13.0314 21.3745 12.7773 22.1261 12.7773C22.5762 12.7773 22.9759 12.8779 23.3435 13.0973C23.7111 13.314 24.0096 13.6336 24.228 14.0687C24.444 14.5038 24.5452 15.0244 24.5452 15.6272Z" fill="#003A9B"/>
<path fill-rule="evenodd" clip-rule="evenodd" d="M10.7479 0.796945C14.2186 -0.460141 18.1722 -0.393459 21.1407 2.18721C21.6922 2.70651 22.325 3.35973 22.5754 4.13086C22.8752 5.10296 21.5258 4.02935 21.3407 3.89691C20.3734 3.25952 19.406 2.72402 18.3218 2.35484C12.4837 0.544932 6.96168 3.81365 3.52584 8.89061C2.09258 11.1368 1.15729 13.4991 0.389958 16.0971C0.307088 16.3821 0.240533 16.7516 0.0899962 17.0009C-0.0605408 17.2884 0.0232556 16.2323 0.0232556 16.1973C0.13931 15.1252 0.356402 14.0866 0.624291 13.048C2.20845 7.51599 5.71196 2.90767 10.7479 0.796945Z" fill="#003A9B"/>
<path fill-rule="evenodd" clip-rule="evenodd" d="M15.2712 14.5224C13.1861 15.5945 10.6324 14.758 9.5825 12.6633C8.51409 10.5673 9.34946 8.00374 11.4344 6.94763C13.5193 5.87551 16.073 6.7122 17.1227 8.80821C18.19 10.9029 17.3561 13.4663 15.2712 14.5224Z" fill="#003A9B"/>
</svg>
